Coordinates
version=1
nRows=6
nColumns=63
inDegrees=yes

Units are S.I. units (second, meters, Newtons, ...)
If the header above contains a line with 'inDegrees', this indicates whether rotational values are in degrees (yes) or radians (no).

endheader
time	pelvis_tilt	pelvis_list	pelvis_rotation	pelvis_tx	pelvis_ty	pelvis_tz	hip_flexion_r	hip_adduction_r	hip_rotation_r	knee_angle_r	knee_angle_r_beta	ankle_angle_r	subtalar_angle_r	mtp_angle_r	hip_flexion_l	hip_adduction_l	hip_rotation_l	knee_angle_l	knee_angle_l_beta	ankle_angle_l	subtalar_angle_l	mtp_angle_l	L5_S1_Flex_Ext	L5_S1_Lat_Bending	L5_S1_axial_rotation	L4_L5_Flex_Ext	L4_L5_Lat_Bending	L4_L5_axial_rotation	L3_L4_Flex_Ext	L3_L4_Lat_Bending	L3_L4_axial_rotation	L2_L3_Flex_Ext	L2_L3_Lat_Bending	L2_L3_axial_rotation	L1_L2_Flex_Ext	L1_L2_Lat_Bending	L1_L2_axial_rotation	L1_T12_Flex_Ext	L1_T12_Lat_Bending	L1_T12_axial_rotation	Abs_r3	Abs_r2	Abs_r1	Abs_t1	Abs_t2	neck_flexion	neck_bending	neck_rotation	arm_flex_r	arm_add_r	arm_rot_r	elbow_flex_r	pro_sup_r	wrist_flex_r	wrist_dev_r	arm_flex_l	arm_add_l	arm_rot_l	elbow_flex_l	pro_sup_l	wrist_flex_l	wrist_dev_l
3.266667	-2.006776	1.068395	83.208886	0.337495	0.959683	0.399017	-3.459036	2.304602	9.969845	7.717094	0.134689	25.832630	-13.135375	0.000000	0.983854	-1.317576	2.170070	14.410295	0.251507	34.819993	-8.732226	0.000000	0.456740	-0.110613	1.358434	0.848212	-0.147115	1.443336	0.750378	-0.268945	1.443336	0.522008	-0.268945	1.188630	0.424129	-0.225562	1.103728	0.260981	-0.171340	1.018826	3.262449	-1.251278	7.555204	0.000000	0.000000	28.394502	-9.616616	-13.659037	14.716424	-22.354533	131.046882	9.972645	8.488613	0.206063	-4.279426	21.387121	-22.407915	70.484844	18.033029	41.565819	-12.312309	-3.325421
3.283333	-2.016318	0.968873	83.742412	0.336660	0.959531	0.398923	-3.368463	2.328703	9.595143	7.723837	0.134806	25.887216	-13.413221	0.000000	1.206700	-1.261988	3.023500	14.517213	0.253373	34.815848	-8.980572	0.000000	0.481546	-0.109487	1.323221	0.894279	-0.145617	1.405922	0.791132	-0.266206	1.405922	0.550359	-0.266206	1.157818	0.447163	-0.223265	1.075117	0.275155	-0.169595	0.992416	3.439634	-1.238536	7.359358	0.000000	0.000000	28.402912	-9.599566	-13.756513	14.602576	-20.520774	126.293773	11.018836	11.336051	0.249158	-3.652174	21.596827	-20.162120	67.459666	19.998873	49.234811	-13.006022	-3.698166
3.300000	-2.027747	0.869924	84.358581	0.335646	0.959429	0.398667	-3.288548	2.350237	9.129402	7.726674	0.134856	26.010600	-13.606869	0.000000	1.417740	-1.192807	3.965612	14.604289	0.254893	34.783994	-9.226351	0.000000	0.504481	-0.108062	1.290357	0.936871	-0.143722	1.371005	0.828812	-0.262742	1.371005	0.576571	-0.262742	1.129063	0.468461	-0.220360	1.048415	0.288260	-0.167388	0.967768	3.603457	-1.222418	7.176581	0.000000	0.000000	28.408992	-9.718392	-13.965500	14.264413	-18.802299	119.379002	12.486749	14.368577	0.296369	-2.813779	21.768802	-17.914099	64.987170	22.055818	56.409476	-13.296787	-4.230360
3.316667	-2.048385	0.777944	85.031034	0.334550	0.959403	0.398276	-3.223142	2.367767	8.650773	7.726872	0.134859	26.158859	-13.796112	0.000000	1.607637	-1.110402	4.927920	14.665578	0.255963	34.709490	-9.454018	0.000000	0.525813	-0.108294	1.253395	0.976488	-0.144031	1.331732	0.863858	-0.263305	1.331732	0.600952	-0.263305	1.096721	0.488270	-0.220832	1.018383	0.300450	-0.167747	0.940046	3.755831	-1.225040	6.971006	0.000000	0.000000	28.413305	-9.901225	-14.280907	13.800240	-17.258502	110.658667	14.435528	16.922240	0.233669	-1.724698	21.900116	-15.738273	63.145350	24.161635	62.806174	-13.122072	-4.834535
3.333333	-2.069184	0.706414	85.739183	0.333362	0.959489	0.397733	-3.188888	2.373813	7.990748	7.728927	0.134895	26.350225	-13.759256	0.000000	1.755701	-1.022526	5.890484	14.701518	0.256590	34.609528	-9.637591	0.000000	0.545114	-0.108702	1.212592	1.012331	-0.144574	1.288379	0.895568	-0.264298	1.288379	0.623011	-0.264298	1.061018	0.506193	-0.221665	0.985231	0.311478	-0.168380	0.909444	3.893694	-1.229660	6.744072	0.000000	0.000000	28.417622	-10.121496	-14.649331	13.289204	-15.885991	101.077897	16.698669	19.152777	0.287894	-0.320341	22.036268	-13.676409	62.310994	26.255818	67.847193	-12.445675	-5.292976
3.350000	-2.102064	0.648118	86.463290	0.332160	0.959672	0.397028	-3.184648	2.367986	7.293553	7.727776	0.134875	26.506303	-13.708794	0.000000	1.865896	-0.922574	6.828598	14.706380	0.256675	34.483654	-9.784509	0.000000	0.565136	-0.111516	1.166400	1.049515	-0.148316	1.239300	0.928463	-0.271140	1.239300	0.645894	-0.271140	1.020600	0.524786	-0.227404	0.947700	0.322919	-0.172738	0.874800	4.036713	-1.261492	6.487165	0.000000	0.000000	28.422094	-10.314357	-15.020283	12.774773	-14.646778	91.333419	19.132447	21.453135	0.579030	1.346061	22.164260	-11.794815	62.260942	28.295154	71.525851	-11.254645	-5.509596
